<?xml version="1.0" encoding="utf-8"?>
<!-- Generator: Adobe Illustrator 22.1.0, SVG Export Plug-In . SVG Version: 6.00 Build 0)  -->
<svg version="1.1" id="Layer_1" xmlns="http://www.w3.org/2000/svg" xmlns:xlink="http://www.w3.org/1999/xlink" x="0px" y="0px"
	 viewBox="0 0 600 29" style="enable-background:new 0 0 600 29;" xml:space="preserve">
<metadata><?xpacket begin="﻿" id="W5M0MpCehiHzreSzNTczkc9d"?>
<x:xmpmeta xmlns:x="adobe:ns:meta/" x:xmptk="Adobe XMP Core 5.6-c143 79.161356, 2017/09/07-01:11:22        ">
   <rdf:RDF xmlns:rdf="http://www.w3.org/1999/02/22-rdf-syntax-ns#">
      <rdf:Description rdf:about=""/>
   </rdf:RDF>
</x:xmpmeta>
                                                                                                    
                                                                                                    
                                                                                                    
                                                                                                    
                                                                                                    
                                                                                                    
                                                                                                    
                                                                                                    
                                                                                                    
                                                                                                    
                                                                                                    
                                                                                                    
                                                                                                    
                                                                                                    
                                                                                                    
                                                                                                    
                                                                                                    
                                                                                                    
                                                                                                    
                                                                                                    
                           
<?xpacket end="w"?></metadata>
<g>
	<polygon points="42.9,3.1 79.6,3.1 82.7,3.1 119.4,3.1 122.5,3.1 159.1,3.1 159.1,3.1 202.1,3.1 202.1,3.1 202.1,3.1 238.7,3.1 
		238.8,3.1 241.9,3.1 241.9,3.1 278.5,3.1 278.6,3.1 281.7,3.1 281.7,3.1 318.3,3.1 318.4,3.1 321.4,3.1 321.5,3.1 358.1,3.1 
		358.2,3.1 361.2,3.1 361.3,3.1 397.9,3.1 397.9,3.1 401,3.1 401.1,3.1 437.7,3.1 440.8,3.1 440.9,3.1 477.5,3.1 480.6,3.1 
		517.3,3.1 520.4,3.1 557.1,3.1 560.2,3.1 600,3.1 600,0 440.9,0 198.9,0 39.8,0 39.8,0 0,0 0,3.1 42.9,3.1 	"/>
	<polygon points="583.7,13 583.7,22.6 600,22.6 600,6.5 596.9,6.5 596.9,19.4 586.8,19.4 586.8,16.1 593.5,16.1 593.5,6.5 
		577.1,6.5 577.1,19.4 566.9,19.4 566.9,16.1 573.6,16.1 573.6,6.5 557.1,6.5 557.1,6.5 557.1,6.5 557.1,19.4 547,19.4 547,16.1 
		553.7,16.1 553.7,6.5 537.3,6.5 537.3,19.4 527.1,19.4 527.1,16.1 533.8,16.1 533.8,6.5 520.4,6.5 517.3,6.5 517.3,9.6 517.3,19.4 
		507.3,19.4 507.3,16.1 513.9,16.1 513.9,6.5 497.5,6.5 497.5,19.4 487.4,19.4 487.4,16.1 494,16.1 494,6.5 480.6,6.5 477.5,6.5 
		477.5,9.6 477.5,19.4 467.5,19.4 467.5,16.1 474.1,16.1 474.1,6.5 457.7,6.5 457.7,19.4 447.6,19.4 447.6,16.1 454.2,16.1 
		454.2,6.5 440.9,6.5 440.8,6.5 437.7,6.5 437.7,6.5 437.7,9.6 437.7,19.4 427.7,19.4 427.7,16.1 434.3,16.1 434.3,16.1 434.3,6.5 
		434.3,6.5 418,6.5 417.9,6.5 417.9,19.4 407.8,19.4 407.8,16.1 414.4,16.1 414.5,16.1 414.5,6.5 414.4,6.5 401,6.5 398,6.5 
		397.9,6.5 397.9,9.6 397.9,19.4 387.9,19.4 387.9,16.1 394.5,16.1 394.6,16.1 394.6,6.5 394.5,6.5 378.2,6.5 378.1,6.5 378.1,19.4 
		368,19.4 368,16.1 374.6,16.1 374.7,16.1 374.7,6.5 374.6,6.5 361.3,6.5 361.2,6.5 358.2,6.5 358.1,6.5 358.1,9.6 358.1,19.4 
		348.1,19.4 348.1,16.1 354.7,16.1 354.8,16.1 354.8,6.5 354.7,6.5 338.4,6.5 338.3,6.5 338.3,19.4 328.2,19.4 328.2,16.1 
		334.8,16.1 334.9,16.1 334.9,6.5 334.8,6.5 321.5,6.5 321.4,6.5 318.4,6.5 318.3,6.5 318.3,9.6 318.3,19.4 308.3,19.4 308.3,16.1 
		314.9,16.1 315,16.1 315,6.5 314.9,6.5 298.6,6.5 298.5,6.5 298.5,19.4 288.4,19.4 288.4,16.1 295,16.1 295.1,16.1 295.1,6.5 
		295,6.5 281.7,6.5 281.7,6.5 278.6,6.5 278.5,6.5 278.5,9.6 278.5,19.4 268.5,19.4 268.5,16.1 275.1,16.1 275.2,16.1 275.2,6.5 
		275.1,6.5 258.8,6.5 258.7,6.5 258.7,19.4 248.6,19.4 248.6,16.1 255.2,16.1 255.3,16.1 255.3,6.5 255.2,6.5 241.9,6.5 238.8,6.5 
		238.7,6.5 238.7,6.5 238.7,9.6 238.7,19.4 228.8,19.4 228.8,16.1 235.3,16.1 235.4,16.1 235.4,6.5 235.3,6.5 219,6.5 218.9,6.5 
		218.9,19.4 208.9,19.4 208.9,16.1 215.4,16.1 215.5,16.1 215.5,6.5 215.4,6.5 202.1,6.5 199,6.5 198.9,6.5 198.9,6.5 198.9,6.5 
		198.9,19.4 189,19.4 189,16.1 195.5,16.1 195.5,16.1 195.6,16.1 195.6,6.5 179.2,6.5 179.2,6.5 179.1,6.5 179.1,19.4 169.1,19.4 
		169.1,16.1 175.6,16.1 175.6,16.1 175.7,16.1 175.7,6.5 162.3,6.5 162.2,6.5 159.2,6.5 159.1,6.5 159.1,6.5 159.1,9.6 159.1,19.4 
		149.2,19.4 149.2,16.1 155.8,16.1 155.8,6.5 139.4,6.5 139.4,19.4 129.3,19.4 129.3,16.1 135.9,16.1 135.9,6.5 122.5,6.5 
		119.4,6.5 119.4,9.6 119.4,19.4 109.4,19.4 109.4,16.1 116,16.1 116,6.5 99.6,6.5 99.6,19.4 89.5,19.4 89.5,16.1 96.1,16.1 
		96.1,6.5 79.6,6.5 79.6,6.5 79.6,9.6 79.6,19.4 69.6,19.4 69.6,16.1 76.2,16.1 76.2,6.5 59.8,6.5 59.8,19.4 49.7,19.4 49.7,16.1 
		56.3,16.1 56.3,6.5 39.8,6.5 39.8,6.5 39.8,6.5 39.8,19.4 29.8,19.4 29.8,16.1 36.4,16.1 36.4,6.5 20,6.5 20,19.4 9.9,19.4 
		9.9,16.1 16.5,16.1 16.5,6.5 3.1,6.5 3.1,6.5 0,6.5 0,6.5 0,9.6 0,22.6 3.1,22.6 3.1,9.6 13.4,9.6 13.4,13 6.7,13 6.7,22.6 
		23.1,22.6 23.1,9.6 33.3,9.6 33.3,13 26.6,13 26.6,22.6 42.9,22.6 42.9,9.6 53.2,9.6 53.2,13 46.5,13 46.5,22.6 62.9,22.6 
		62.9,9.6 73.1,9.6 73.1,13 66.4,13 66.4,22.6 82.7,22.6 82.7,9.6 93,9.6 93,13 86.3,13 86.3,22.6 102.7,22.6 102.7,9.6 112.9,9.6 
		112.9,13 106.2,13 106.2,22.6 122.5,22.6 122.5,9.6 132.8,9.6 132.8,13 126.1,13 126.1,22.6 142.5,22.6 142.5,9.6 152.7,9.6 
		152.7,13 146,13 146,22.6 159.1,22.6 159.1,22.6 162.2,22.6 162.2,22.6 162.3,22.6 162.3,9.6 172.5,9.6 172.5,13 165.9,13 
		165.9,13 165.9,13 165.9,22.6 182.3,22.6 182.3,22.6 182.3,22.6 182.3,9.6 192.4,9.6 192.4,13 185.8,13 185.8,13 185.8,13 
		185.8,22.6 202.1,22.6 202.1,22.6 202.1,22.6 202.1,9.6 212.3,9.6 212.3,13 205.7,13 205.7,13 205.7,22.6 205.7,22.6 222.1,22.6 
		222.1,22.6 222.1,9.6 232.2,9.6 232.2,13 225.6,13 225.6,13 225.6,22.6 225.6,22.6 241.9,22.6 241.9,22.6 241.9,9.6 252.1,9.6 
		252.1,13 245.5,13 245.5,13 245.5,22.6 245.5,22.6 261.9,22.6 261.9,22.6 261.9,9.6 272,9.6 272,13 265.4,13 265.4,13 265.4,22.6 
		265.4,22.6 281.7,22.6 281.7,22.6 281.7,9.6 291.9,9.6 291.9,13 285.3,13 285.3,13 285.3,22.6 285.3,22.6 301.7,22.6 301.7,22.6 
		301.7,9.6 311.8,9.6 311.8,13 305.2,13 305.2,13 305.2,22.6 305.2,22.6 321.4,22.6 321.5,22.6 321.5,9.6 331.7,9.6 331.7,13 
		325.1,13 325.1,13 325.1,22.6 325.1,22.6 341.4,22.6 341.5,22.6 341.5,9.6 351.6,9.6 351.6,13 345,13 344.9,13 344.9,22.6 
		345,22.6 361.2,22.6 361.3,22.6 361.3,9.6 371.5,9.6 371.5,13 364.9,13 364.8,13 364.8,22.6 364.9,22.6 381.2,22.6 381.3,22.6 
		381.3,9.6 391.4,9.6 391.4,13 384.8,13 384.7,13 384.7,22.6 384.8,22.6 401,22.6 401.1,22.6 401.1,9.6 411.3,9.6 411.3,13 
		404.7,13 404.6,13 404.6,22.6 404.7,22.6 421,22.6 421.1,22.6 421.1,9.6 431.2,9.6 431.2,13 424.6,13 424.5,13 424.5,22.6 
		424.6,22.6 440.8,22.6 440.9,22.6 440.9,9.6 451.1,9.6 451.1,13 444.4,13 444.4,22.6 460.8,22.6 460.8,9.6 471,9.6 471,13 
		464.3,13 464.3,22.6 480.6,22.6 480.6,9.6 490.9,9.6 490.9,13 484.2,13 484.2,22.6 500.6,22.6 500.6,9.6 510.8,9.6 510.8,13 
		504.1,13 504.1,22.6 520.4,22.6 520.4,9.6 530.6,9.6 530.6,13 524,13 524,22.6 540.4,22.6 540.4,9.6 550.5,9.6 550.5,13 543.9,13 
		543.9,22.6 560.2,22.6 560.2,9.6 570.4,9.6 570.4,13 563.8,13 563.8,22.6 580.2,22.6 580.2,9.6 590.3,9.6 590.3,13 	"/>
	<polygon points="560.2,25.9 557.1,25.9 520.4,25.9 517.3,25.9 480.6,25.9 477.5,25.9 440.9,25.9 440.8,25.9 437.7,25.9 401.1,25.9 
		401,25.9 397.9,25.9 397.9,25.9 361.3,25.9 361.2,25.9 358.2,25.9 358.1,25.9 321.5,25.9 321.4,25.9 318.4,25.9 318.3,25.9 
		281.7,25.9 281.7,25.9 278.6,25.9 278.5,25.9 241.9,25.9 241.9,25.9 238.8,25.9 238.7,25.9 202.1,25.9 199,25.9 198.9,25.9 
		162.3,25.9 159.2,25.9 122.5,25.9 119.4,25.9 82.7,25.9 79.6,25.9 39.8,25.9 39.8,25.9 0,25.9 0,29 42.9,29 42.9,29 79.6,29 
		82.7,29 119.4,29 122.5,29 159.1,29 159.1,29 202.1,29 202.1,29 202.1,29 238.7,29 238.8,29 241.9,29 241.9,29 278.5,29 278.6,29 
		281.7,29 281.7,29 318.3,29 318.4,29 321.4,29 321.5,29 358.1,29 358.2,29 361.2,29 361.3,29 397.9,29 397.9,29 401,29 401.1,29 
		437.7,29 440.8,29 440.9,29 477.5,29 480.6,29 517.3,29 520.4,29 557.1,29 560.2,29 600,29 600,25.9 	"/>
</g>
</svg>
